<?xml version="1.0" encoding="UTF-8"?>
<svg id="Layer_1" xmlns="http://www.w3.org/2000/svg" version="1.1" viewBox="0 0 500 500">
  <!-- Generator: Adobe Illustrator 29.3.1, SVG Export Plug-In . SVG Version: 2.1.0 Build 151)  -->
  <path d="M112.99,220.56c2.36-22.84,13.42-54.88,24.52-75.11,34.15-62.26,109.92-112.4,181.54-113.94-27.56,24.71-57.36,46.99-76.99,79.21,120.01-5.9,220.06,94.59,226.45,211.74l-41.91-50.93c-13.59-8.94-23.67-23.96-39.61-29.45v32.83c0,7.59-5.99,28.37-8.46,36.83-25.93,88.85-111.53,149.18-202.13,156.76,20.98-17.76,42.99-34.58,61.2-55.4,2.41-2.76,20.32-24.07,18.04-26.09-118.7,3.77-217.89-94.1-224.14-210.6,18.24,23.28,37.15,46.72,60.05,65.6,5.96,4.91,13.99,11.49,21.44,13.65.84-11.32-1.15-23.98,0-35.1ZM232.41,172.42c-14.91,2.31-35.29,16.19-44.31,28.15-47.74,63.31,15.2,147.58,89.48,121.18,83.56-29.69,58.17-165.34-45.17-149.34Z"/>
</svg>