<?xml version="1.0" encoding="UTF-8"?>
<svg id="Layer_1" xmlns="http://www.w3.org/2000/svg" version="1.1" viewBox="0 0 500 500">
  <!-- Generator: Adobe Illustrator 29.3.1, SVG Export Plug-In . SVG Version: 2.1.0 Build 151)  -->
  <path d="M113,220.6c2.4-22.8,13.4-54.9,24.5-75.1,34.2-62.3,109.9-112.4,181.5-113.9-27.6,24.7-57.4,47-77,79.2,120-5.9,220.1,94.6,226.5,211.7l-41.9-50.9c-13.6-8.9-23.7-24-39.6-29.4v32.8c0,7.6-6,28.4-8.5,36.8-25.9,88.9-111.5,149.2-202.1,156.8,21-17.8,43-34.6,61.2-55.4,2.4-2.8,20.3-24.1,18-26.1-118.7,3.8-217.9-94.1-224.1-210.6,18.2,23.3,37.2,46.7,60.1,65.6,6,4.9,14,11.5,21.4,13.6.8-11.3-1.2-24,0-35.1ZM232.4,172.4c-14.9,2.3-35.3,16.2-44.3,28.1-47.7,63.3,15.2,147.6,89.5,121.2,83.6-29.7,58.2-165.3-45.2-149.3h0Z"/>
  <circle cx="255.5" cy="247" r="93.8"/>
</svg>